<svg width="47" height="52" viewBox="0 0 47 52" fill="none" xmlns="http://www.w3.org/2000/svg">
<g clip-path="url(#clip0_307_2)">
<path d="M44.8524 26.0001C42.7162 37.818 36.3071 49.6363 36.3071 49.6363C36.3071 49.6363 34.1705 51.9998 23.4889 51.9998C12.807 51.9998 10.6707 49.6363 10.6707 49.6363C10.6707 49.6363 4.26162 37.818 2.125 26.0001H44.8524Z" fill="#C82E25"/>
<path d="M27.9192 51.8431L27.625 47.1274C30.6962 46.892 32.4029 46.4246 33.2185 46.1277C34.394 43.7884 37.3505 37.5943 39.3377 30.7271H32.0543V26.0001H44.9527L44.2517 28.9626C42.0623 38.2119 37.8094 46.789 36.5588 49.1988L36.2259 49.8384L35.6239 50.1544C34.7112 50.6348 32.4975 51.4934 27.9192 51.8431Z" fill="#AF0A00"/>
<path d="M22.7047 51.989C22.7066 51.9886 22.7125 51.9808 22.7148 51.9808C26.0317 46.8552 30.7 37.8111 32.0343 26.0001H2.125C4.26163 37.818 10.6708 49.6363 10.6708 49.6363C10.6708 49.6363 12.7221 51.8734 22.7047 51.989Z" fill="#D2514A"/>
<path d="M23.4764 42.5454C19.0971 42.5454 15.3794 40.7658 13.0303 37.6046C12.2464 37.7509 11.4527 37.8223 10.6582 37.818V33.091C11.6698 33.091 12.5304 32.956 13.2157 32.6894L14.8567 32.051L15.7537 33.6991C16.5916 35.2377 18.7102 37.818 23.4764 37.818C27.2254 37.818 29.3304 36.1968 30.4362 34.8361L33.6134 37.9981C31.2288 40.9307 27.6291 42.5454 23.4764 42.5454Z" fill="#C82E25"/>
<path d="M36.3147 37.818C34.8196 37.818 33.4826 37.5929 32.3403 37.1489L33.7568 32.6894C35.0536 33.1936 37.2837 33.3459 38.6262 32.4678L40.8023 36.5347C39.5024 37.3865 37.9921 37.818 36.3147 37.818Z" fill="#AF0A00"/>
<path d="M42.7274 18.9092C42.7274 18.9092 40.5908 0 23.5001 0C6.40909 0 4.27286 18.9092 4.27286 18.9092C4.27286 18.9092 0 18.9092 0 23.6362C0 28.3636 6.40909 28.3636 6.40909 28.3636C6.40909 28.3636 6.40909 33.0911 10.6819 33.0911C14.9544 33.0911 14.9544 30.7271 14.9544 30.7271C14.9544 33.0911 17.091 37.818 23.5001 37.818C29.9092 37.818 32.0455 33.0911 32.0455 30.7271C32.0455 30.7271 32.0455 33.0911 36.3183 33.0911C40.5908 33.0911 40.5908 28.3636 40.5908 28.3636C40.5908 28.3636 46.9999 28.3636 46.9999 23.6362C46.9999 18.9092 42.7274 18.9092 42.7274 18.9092Z" fill="#FDCF6D"/>
<path d="M36.3247 30.7272C38.1617 30.7272 38.4516 29.2375 38.4609 28.3498L38.4652 26.0071L40.5921 26.0002C40.6316 26.0002 44.87 25.857 44.87 23.6363C44.87 21.6039 43.5232 21.2832 42.7213 21.2728L42.7463 18.9093C44.8669 18.937 47.0063 20.4094 47.0063 23.6363C47.0063 27.3748 42.8152 28.3624 40.5972 28.3637V28.3659C40.5721 30.7237 39.2413 33.0911 36.3247 33.0911V30.7272Z" fill="#FDBC34"/>
<path d="M12.9754 49.1101C8.6724 41.9694 6.53069 34.9421 6.44189 34.6466L8.46782 33.8987C8.48855 33.9679 10.6158 40.9333 14.7529 47.7992L12.9754 49.1101Z" fill="#D96C66"/>
<path d="M17.091 7.09088C6.40909 7.09088 4.27286 18.9092 4.27286 18.9092C4.27286 18.9092 0 18.9092 0 23.6362C0 28.3636 6.40909 28.3636 6.40909 28.3636C6.40909 28.3636 6.40909 33.091 10.6819 33.091C14.9544 33.091 14.9544 30.7271 14.9544 30.7271C14.9544 33.091 17.091 37.818 23.5001 37.818C32.0455 37.818 34.1817 7.09088 17.091 7.09088Z" fill="#FEE3AA"/>
<path d="M23.5001 37.818C18.0111 37.818 15.6785 34.3652 15.1027 31.909H14.4518C13.8478 32.5725 12.6605 33.091 10.682 33.091C7.76531 33.091 6.43413 30.7202 6.40909 28.3705L6.40166 28.3636C4.19345 28.3636 0 27.3755 0 23.6362C0 20.4093 2.14249 18.9369 4.2666 18.9092L5.12915 18.8988L5.15223 21.2623L4.29046 21.2727C3.4862 21.2831 2.13623 21.6038 2.13623 23.6362C2.13623 25.8568 6.37467 26.0001 6.41731 26.0001L8.52029 26.0209L8.54533 28.3428C8.55471 29.2339 8.84497 30.7271 10.682 30.7271C12.0746 30.7271 12.6691 30.4306 12.8651 30.299L12.9672 29.5456H17.091V30.7271C17.091 31.7255 18.1789 35.4545 23.5001 35.4545V37.818Z" fill="#FDCF6D"/>
<path d="M21.3721 7.09091C21.3721 8.39622 20.4156 9.4544 19.2358 9.4544C18.056 9.4544 17.0996 8.39622 17.0996 7.09091C17.0996 5.7856 18.056 4.72742 19.2358 4.72742C20.4156 4.72742 21.3721 5.7856 21.3721 7.09091Z" fill="#993B17"/>
<path d="M32.0305 4.72739C32.0305 6.0327 31.0741 7.09088 29.8944 7.09088C28.7142 7.09088 27.7578 6.0327 27.7578 4.72739C27.7578 3.42165 28.7142 2.36346 29.8944 2.36346C31.0741 2.36346 32.0305 3.42165 32.0305 4.72739Z" fill="#993B17"/>
<path d="M27.7803 23.6362C27.7803 24.9419 26.8238 26.0001 25.644 26.0001C24.4642 26.0001 23.5078 24.9419 23.5078 23.6362C23.5078 22.3309 24.4642 21.2727 25.644 21.2727C26.8238 21.2727 27.7803 22.3309 27.7803 23.6362Z" fill="#AD6143"/>
<path d="M38.4389 14.1818C38.4389 15.4871 37.4824 16.5453 36.3026 16.5453C35.1225 16.5453 34.166 15.4871 34.166 14.1818C34.166 12.8765 35.1225 11.8183 36.3026 11.8183C37.4824 11.8183 38.4389 12.8765 38.4389 14.1818Z" fill="#993B17"/>
<path d="M14.9306 16.5453C14.9306 17.851 13.9742 18.9092 12.7944 18.9092C11.6146 18.9092 10.6582 17.851 10.6582 16.5453C10.6582 15.2399 11.6146 14.1818 12.7944 14.1818C13.9742 14.1818 14.9306 15.2399 14.9306 16.5453Z" fill="#AD6143"/>
<path d="M28.8433 12.9998C28.8433 14.3056 27.8868 15.3638 26.707 15.3638C25.5268 15.3638 24.5703 14.3056 24.5703 12.9998C24.5703 11.6945 25.5268 10.6364 26.707 10.6364C27.8868 10.6364 28.8433 11.6945 28.8433 12.9998Z" fill="#FDCF6D"/>
<path d="M32.0305 14.1818C32.0305 15.4871 31.0741 16.5453 29.8944 16.5453C28.7142 16.5453 27.7578 15.4871 27.7578 14.1818C27.7578 12.8765 28.7142 11.8183 29.8944 11.8183C31.0741 11.8183 32.0305 12.8765 32.0305 14.1818Z" fill="#FDCF6D"/>
<path d="M21.3608 17.7273C21.3608 18.3799 20.8828 18.9092 20.2929 18.9092C19.703 18.9092 19.2246 18.3799 19.2246 17.7273C19.2246 17.0746 19.703 16.5453 20.2929 16.5453C20.8828 16.5453 21.3608 17.0746 21.3608 17.7273Z" fill="#FDCF6D"/>
<path d="M42.7221 26.0002C42.7221 27.3055 41.7656 28.3636 40.5855 28.3636C39.4057 28.3636 38.4492 27.3055 38.4492 26.0002C38.4492 24.6944 39.4057 23.6362 40.5855 23.6362C41.7656 23.6362 42.7221 24.6944 42.7221 26.0002Z" fill="#FDBC34"/>
<path d="M29.9055 30.7271C29.9055 32.0329 28.9491 33.0911 27.769 33.0911C26.5892 33.0911 25.6328 32.0329 25.6328 30.7271C25.6328 29.4218 26.5892 28.3636 27.769 28.3636C28.9491 28.3636 29.9055 29.4218 29.9055 30.7271Z" fill="#FDCF6D"/>
<path d="M36.3139 23.6362C36.3139 24.9419 35.3574 26.0001 34.1772 26.0001C32.9975 26.0001 32.041 24.9419 32.041 23.6362C32.041 22.3309 32.9975 21.2727 34.1772 21.2727C35.3574 21.2727 36.3139 22.3309 36.3139 23.6362Z" fill="#FDBC34"/>
<path d="M14.9525 29.5456C14.9525 30.1983 14.4745 30.7271 13.8847 30.7271C13.2948 30.7271 12.8164 30.1983 12.8164 29.5456C12.8164 28.893 13.2948 28.3636 13.8847 28.3636C14.4745 28.3636 14.9525 28.893 14.9525 29.5456Z" fill="#FDCF6D"/>
<path d="M21.3389 26.0002C21.3389 27.3055 20.3824 28.3636 19.2026 28.3636C18.0228 28.3636 17.0664 27.3055 17.0664 26.0002C17.0664 24.6944 18.0228 23.6362 19.2026 23.6362C20.3824 23.6362 21.3389 24.6944 21.3389 26.0002Z" fill="#FDCF6D"/>
<path d="M10.6811 11.8183C10.6811 13.1236 9.72462 14.1818 8.54444 14.1818C7.36464 14.1818 6.4082 13.1236 6.4082 11.8183C6.4082 10.5125 7.36464 9.45435 8.54444 9.45435C9.72462 9.45435 10.6811 10.5125 10.6811 11.8183Z" fill="#FDCF6D"/>
<path d="M14.9525 8.27284C14.9525 8.9255 14.4745 9.45437 13.8847 9.45437C13.2948 9.45437 12.8164 8.9255 12.8164 8.27284C12.8164 7.62019 13.2948 7.09088 13.8847 7.09088C14.4745 7.09088 14.9525 7.62019 14.9525 8.27284Z" fill="#FDCF6D"/>
</g>
<defs>
<clipPath id="clip0_307_2">
<rect width="47" height="52" fill="white"/>
</clipPath>
</defs>
</svg>
