<svg width="52" height="47" viewBox="0 0 52 47" fill="none" xmlns="http://www.w3.org/2000/svg">
<g clip-path="url(#clip0_307_3795)">
<path d="M51.8381 22.3758C51.8381 11.1978 40.2339 2.13654 25.9193 2.13654C11.6042 2.13654 0 11.1978 0 22.3758V24.6243C0 35.8023 11.6042 44.8635 25.9193 44.8635C40.2339 44.8635 51.8381 35.8023 51.8381 24.6243V22.3758ZM25.9193 29.1221C20.9774 29.1221 16.7609 26.7938 15.0114 23.5C16.7609 20.2063 20.9774 17.878 25.9193 17.878C30.8606 17.878 35.0772 20.2063 36.8267 23.5C35.0772 26.7938 30.8606 29.1221 25.9193 29.1221Z" fill="#FDBC34"/>
<path d="M25.9193 44.8635C11.6271 44.8635 0 35.7842 0 24.6247V22.3754H4.71271V24.6247C4.71271 33.4286 14.2253 40.5911 25.9193 40.5911C37.6132 40.5911 47.1258 33.4286 47.1258 24.6247V22.3754H51.8381V24.6247C51.8381 35.7842 40.211 44.8635 25.9193 44.8635Z" fill="#F59707"/>
<path d="M49.4819 14.9547C47.1258 12.8181 49.4819 10.6819 47.1258 8.54563C45.4457 7.02237 42.5076 7.38461 40.057 6.409C39.4003 6.00413 38.0192 4.56146 37.7004 4.27277C35.3442 2.13654 25.9193 2.13654 25.9193 2.13654H21.2065C16.4938 2.13654 14.1377 4.27277 11.7816 4.27277C9.42499 4.27277 7.06885 6.409 7.06885 6.409C7.06885 6.409 4.71271 8.54563 4.76233 10.6819C4.76233 10.6819 4.71271 12.8181 2.35614 14.9547C0 17.091 0 19.2272 0 19.2272C0 19.2272 0 21.3638 2.35614 23.5C2.7932 23.8814 3.10815 24.363 3.26779 24.8934C3.29842 24.9717 3.31956 25.0534 3.35192 25.1309C3.6617 26.7234 2.35614 28.3162 2.35614 29.9091C2.35614 32.0454 4.71271 32.0454 4.71271 32.0454C7.06885 32.0454 7.06885 34.182 7.06885 34.182C7.06885 36.3182 9.42499 36.3182 9.42499 36.3182C11.7816 36.3182 11.7816 38.4545 11.7816 38.4545C11.7816 40.5911 14.1377 40.5911 14.1377 40.5911C14.1377 40.5911 16.4938 40.5911 16.4938 38.4545C16.4938 36.3182 18.8504 36.3182 18.8504 36.3182C21.2065 36.3182 21.2065 38.4545 21.2065 38.4545C21.2065 38.4545 21.2065 42.7273 25.9193 42.7273C30.6315 42.7273 30.6315 38.4545 30.6315 38.4545C30.6315 36.3182 32.9881 36.3182 32.9881 36.3182C32.9881 36.3182 35.3442 36.3182 35.3442 38.4545C35.3442 40.5911 37.7004 40.5911 37.7004 40.5911C40.057 40.5911 40.057 38.4545 40.057 38.4545V36.3182C40.057 34.182 42.4131 34.182 42.4131 34.182C42.4131 34.182 44.7692 34.182 44.7692 32.0454C44.7692 29.9091 47.1258 29.9091 47.1258 29.9091C49.4819 29.9091 49.4819 27.7729 49.4819 27.7729C49.4819 25.7129 51.8381 25.6363 51.8381 21.3638C51.8381 19.2272 51.8381 17.091 49.4819 14.9547ZM37.7004 18.1593C37.7004 22.2886 32.4259 25.6363 25.9193 25.6363C19.4126 25.6363 14.1377 22.2886 14.1377 18.1593C14.1377 14.0296 19.4126 10.6819 25.9193 10.6819C32.4259 10.6819 37.7004 14.0296 37.7004 18.1593Z" fill="#993B17"/>
<path d="M25.9193 32.0453C15.3479 32.0453 7.06885 25.9452 7.06885 18.1592C7.06885 17.6358 7.10725 17.1132 7.18404 16.5945L9.51732 16.8781C9.45519 17.3029 9.42456 17.7309 9.42499 18.1592C9.42499 24.7475 16.6712 29.9091 25.9193 29.9091C35.1669 29.9091 42.4131 24.7475 42.4131 18.1592H44.7692C44.7692 25.9452 36.4902 32.0453 25.9193 32.0453Z" fill="#AD6143"/>
<path d="M25.9191 32.0453C21.2801 32.0453 16.8526 30.8436 13.4541 28.6593L14.8162 26.9154C17.8217 28.8451 21.7634 29.9091 25.9191 29.9091C29.7365 29.9091 33.2938 29.0434 36.207 27.4056L37.4495 29.2206C34.1615 31.0689 30.1736 32.0453 25.9191 32.0453Z" fill="#C28A73"/>
<path d="M43.9823 11.6958C43.7248 11.5874 42.7078 11.4184 42.3256 11.3559C41.0601 11.147 39.654 10.9154 38.1608 10.3208L37.4084 9.94331C36.5338 9.40505 35.6688 8.57692 34.6285 7.55242L34.4905 7.41042C33.7221 7.03919 30.107 6.4133 25.9167 6.409H21.2066C19.3794 6.409 18.1299 6.88076 16.6803 7.42528C15.2789 7.95103 13.6938 8.54562 11.7816 8.54562C11.2833 8.78503 10.8212 9.08076 10.4053 9.42578C9.90395 9.89519 9.50573 10.586 9.47337 10.784L7.11938 10.7507C7.11938 9.77862 8.08842 8.52254 8.73947 7.91543C9.31244 7.41042 10.7738 6.409 11.7816 6.409C13.2265 6.409 14.4644 5.94389 15.776 5.45139C17.318 4.87166 18.91 4.27277 21.2066 4.27277H25.9193C29.1017 4.27707 34.4931 4.74218 35.9656 5.73304L36.3776 6.11914C37.2681 6.99538 38.0689 7.76718 38.7316 8.17635L39.1113 8.36607C40.3491 8.85857 41.6076 9.06707 42.7191 9.24857C44.3965 9.52592 45.0549 9.68865 45.4596 10.056L44.6269 10.8113L43.9823 11.6958Z" fill="#AD6143"/>
<path d="M38.1586 10.3188L37.4083 9.94331C36.5337 9.40504 35.6687 8.57692 34.6285 7.55242L34.4904 7.41042C33.722 7.03919 30.1095 6.4133 25.9167 6.409H21.2065V4.27277H25.9193C29.099 4.27707 34.493 4.74218 35.9655 5.73304L36.3776 6.11913C37.2681 6.99538 38.0688 7.76717 38.7315 8.17635L39.1112 8.36607L38.1586 10.3188Z" fill="#C28A73"/>
<path d="M25.9193 42.7273C22.7024 42.7273 21.2342 40.5848 21.2065 38.4607C21.2065 38.4274 21.1789 36.3182 18.8504 36.3182C18.8271 36.3182 16.4938 36.3432 16.4938 38.4544C16.4938 39.7187 15.5757 40.5574 14.1537 40.591C12.7109 40.5574 11.7816 39.698 11.7816 38.4544C11.7816 38.4337 11.7539 36.3182 9.42499 36.3182C7.98223 36.2849 7.06885 35.4462 7.06885 34.182C7.06885 34.1608 7.04124 32.0453 4.71271 32.0453C3.26995 32.0121 2.35614 31.1734 2.35614 29.9091C2.35614 29.1893 2.62321 28.4676 2.87862 27.7705C3.19833 26.9005 3.52278 26.0079 3.35279 25.1316L3.29756 24.9771C3.13836 24.4162 2.81261 23.9053 2.35614 23.5C0.133318 21.4846 0.00690317 19.4693 0 19.2459C0.0185523 18.8058 0.209252 16.9012 2.35614 14.9547C4.66655 12.8599 4.76103 10.7695 4.76319 10.6799L7.11933 10.7256C7.11243 11.0323 6.96746 13.7944 4.02239 16.465C2.44372 17.8964 2.35614 19.244 2.35614 19.2565C2.35873 19.2565 2.44847 20.5626 4.02239 21.9897C4.7675 22.6535 5.30164 23.4875 5.5687 24.4032L5.6468 24.6559C5.94579 26.1682 5.48802 27.4243 5.12 28.432C4.91722 28.9828 4.71271 29.5355 4.71271 29.9091C7.77297 29.9091 9.42499 32.1103 9.42499 34.182C12.4857 34.182 14.1377 36.3827 14.1377 38.4544C14.1377 35.6798 16.5655 34.182 18.8504 34.182C21.9107 34.182 23.5627 36.3808 23.5627 38.4482C23.5722 39.2411 23.8919 40.591 25.9193 40.591C27.944 40.591 28.2637 39.2454 28.2754 38.4419C28.2754 35.6798 30.7032 34.182 32.9881 34.182C35.2731 34.182 37.7004 35.6798 37.7004 38.4544V36.3182C37.7004 33.5436 40.1212 32.0453 42.3993 32.0453C42.4131 29.2707 44.8409 27.7729 47.1258 27.7729C47.1258 26.2602 47.8688 25.2963 48.4098 24.5953C48.9871 23.8485 49.4819 23.2101 49.4819 21.3638C49.4819 19.3961 49.4819 17.9754 47.8161 16.465C45.9475 14.7708 45.9475 12.9538 45.9475 11.7501C45.9475 10.7777 45.9268 10.4796 45.4596 10.0559L47.1258 8.54559C48.3037 9.61351 48.3037 10.7006 48.3037 11.7501C48.3037 12.8494 48.3037 13.8864 49.4819 14.9547C51.8381 17.0909 51.8381 19.2627 51.8381 21.3638C51.8381 23.8838 51.0097 24.954 50.3448 25.8138C49.8802 26.4166 49.4819 26.9318 49.4819 27.7729C49.4453 29.081 48.5202 29.9091 47.1258 29.9091C47.1025 29.9091 44.7692 29.9341 44.7692 32.0453C44.7692 33.3096 43.8511 34.1483 42.4291 34.182C42.3764 34.182 40.057 34.207 40.057 36.3182V38.4544C40.0199 39.7625 39.0948 40.591 37.7004 40.591C36.2576 40.5574 35.3442 39.7187 35.3442 38.4544C35.3442 36.3432 33.011 36.3182 32.9881 36.3182C32.9648 36.3182 30.6315 36.3432 30.6315 38.4544C30.6039 40.5867 29.1361 42.7273 25.9193 42.7273Z" fill="#8B2800"/>
<path d="M14.1375 29.9092C14.1375 31.089 13.0826 32.0454 11.7814 32.0454C10.4797 32.0454 9.4248 31.089 9.4248 29.9092C9.4248 28.7294 10.4797 27.7729 11.7814 27.7729C13.0826 27.7729 14.1375 28.7294 14.1375 29.9092Z" fill="#7D1A00"/>
<path d="M18.8502 8.54562C18.8502 9.72542 17.7953 10.6819 16.4936 10.6819C15.1923 10.6819 14.1375 9.72542 14.1375 8.54562C14.1375 7.36543 15.1923 6.409 16.4936 6.409C17.7953 6.409 18.8502 7.36543 18.8502 8.54562Z" fill="#7D1A00"/>
<path d="M9.42492 17.0909C9.42492 18.2707 8.37003 19.2272 7.06879 19.2272C5.76754 19.2272 4.71265 18.2707 4.71265 17.0909C4.71265 15.9111 5.76754 14.9547 7.06879 14.9547C8.37003 14.9547 9.42492 15.9111 9.42492 17.0909Z" fill="#7D1A00"/>
<path d="M47.1258 25.6362C47.1258 26.8164 46.0709 27.7729 44.7692 27.7729C43.468 27.7729 42.4131 26.8164 42.4131 25.6362C42.4131 24.4564 43.468 23.5 44.7692 23.5C46.0709 23.5 47.1258 24.4564 47.1258 25.6362Z" fill="#7D1A00"/>
<path d="M35.3443 32.0454C35.3443 33.2256 34.2894 34.182 32.9882 34.182C31.6865 34.182 30.6316 33.2256 30.6316 32.0454C30.6316 30.8656 31.6865 29.9092 32.9882 29.9092C34.2894 29.9092 35.3443 30.8656 35.3443 32.0454Z" fill="#7D1A00"/>
<path d="M23.5626 29.9092C23.5626 31.089 22.5077 32.0454 21.2065 32.0454C19.9052 32.0454 18.8503 31.089 18.8503 29.9092C18.8503 28.7294 19.9052 27.7729 21.2065 27.7729C22.5077 27.7729 23.5626 28.7294 23.5626 29.9092Z" fill="#7D1A00"/>
<path d="M28.2752 4.27277C28.2752 5.45256 27.2203 6.409 25.9191 6.409C24.6174 6.409 23.5625 5.45256 23.5625 4.27277C23.5625 3.09297 24.6174 2.13654 25.9191 2.13654C27.2203 2.13654 28.2752 3.09297 28.2752 4.27277Z" fill="#7D1A00"/>
<path d="M40.0569 6.409C40.0569 7.58919 39.0021 8.54562 37.7004 8.54562C36.3991 8.54562 35.3442 7.58919 35.3442 6.409C35.3442 5.2292 36.3991 4.27277 37.7004 4.27277C39.0021 4.27277 40.0569 5.2292 40.0569 6.409Z" fill="#7D1A00"/>
<path d="M47.1258 14.9547C47.1258 16.1345 46.0709 17.0909 44.7692 17.0909C43.468 17.0909 42.4131 16.1345 42.4131 14.9547C42.4131 13.7745 43.468 12.8181 44.7692 12.8181C46.0709 12.8181 47.1258 13.7745 47.1258 14.9547Z" fill="#7D1A00"/>
<path d="M25.9192 27.7729C18.1229 27.7729 11.7815 23.4606 11.7815 18.1593H14.1376C14.1376 22.2816 19.4233 25.6363 25.9192 25.6363C32.4151 25.6363 37.7003 22.2816 37.7003 18.1593H40.0569C40.0569 23.4606 33.715 27.7729 25.9192 27.7729Z" fill="#8B2800"/>
<path d="M37.7004 18.1592H32.9881C32.9881 16.8823 30.169 14.9546 25.9193 14.9546C21.6691 14.9546 18.8504 16.8823 18.8504 18.1592H14.1377C14.1377 14.0365 19.4234 10.6818 25.9193 10.6818C32.4151 10.6818 37.7004 14.0365 37.7004 18.1592Z" fill="#F59707"/>
</g>
<defs>
<clipPath id="clip0_307_3795">
<rect width="51.8382" height="47" fill="white"/>
</clipPath>
</defs>
</svg>
