<svg width="47" height="47" viewBox="0 0 47 47" fill="none" xmlns="http://www.w3.org/2000/svg">
<g clip-path="url(#clip0_307_3659)">
<path d="M0.0332031 46.9999L47.0331 32.0455C47.0331 14.3473 32.6858 0 14.9876 0L0.0332031 46.9999Z" fill="#F59707"/>
<path d="M24.6276 21.3616C23.2108 21.3659 21.851 20.8034 20.8516 19.7988L22.3619 18.2885C23.5718 19.4964 25.6873 19.4964 26.8933 18.2885C28.1424 17.0363 28.1424 15.0092 26.8933 13.7571L28.4037 12.2467C29.9316 13.7735 30.3889 16.0705 29.562 18.0663C28.7354 20.0617 26.7877 21.3624 24.6276 21.3616Z" fill="#EF7F00"/>
<path d="M2.68945 41.6653L44.232 28.4705L45.5256 32.543L3.98308 45.7379L2.68945 41.6653Z" fill="#E76400"/>
<path d="M38.4742 32.0454C38.4742 19.0876 27.9319 8.54529 14.9741 8.54529C14.0893 8.54412 13.2271 8.26599 12.5081 7.74963L11.1895 11.895C12.3618 12.4935 13.6578 12.8095 14.9741 12.8182C25.5767 12.8182 34.2014 21.4441 34.2014 32.0454C34.2096 33.3617 34.5261 34.6577 35.1246 35.8301L39.2695 34.5114C38.7535 33.7924 38.4754 32.9303 38.4742 32.0454Z" fill="#E76400"/>
<path d="M14.9975 0C12.6379 0 10.7246 1.91287 10.7246 4.27286C10.7246 6.63245 12.6379 8.54532 14.9975 8.54532C27.976 8.54532 38.4976 19.0669 38.4976 32.0455C38.4976 34.405 40.4105 36.3183 42.7701 36.3183C45.1301 36.3183 47.0429 34.405 47.0429 32.0455C47.0429 14.3473 32.6956 0 14.9975 0Z" fill="#FDCF6D"/>
<path d="M47.0275 32.0454C47.0275 34.405 45.1147 36.3183 42.7548 36.3183C40.3952 36.3183 38.4824 34.405 38.4824 32.0454C38.4824 29.6858 40.3952 27.7726 42.7548 27.7726C45.1147 27.7726 47.0275 29.6858 47.0275 32.0454Z" fill="#FDBC34"/>
<path d="M44.8803 32.0455C44.8803 33.2253 43.9238 34.1818 42.7437 34.1818C41.5639 34.1818 40.6074 33.2253 40.6074 32.0455C40.6074 30.8657 41.5639 29.9093 42.7437 29.9093C43.9238 29.9093 44.8803 30.8657 44.8803 32.0455Z" fill="#FDAB00"/>
<path d="M13.9121 17.091V12.8181C14.5024 12.8185 14.9816 12.3401 14.9816 11.7498C14.9816 11.1595 14.5024 10.6811 13.9121 10.6819V6.40906C16.862 6.40906 19.2533 8.80034 19.2533 11.7498C19.2533 14.6997 16.862 17.091 13.9121 17.091Z" fill="#C82E25"/>
<path d="M9.65761 32.0455C6.7077 32.0455 4.31641 29.6542 4.31641 26.7047C4.31641 23.7548 6.7077 21.3635 9.65761 21.3635V25.6364C9.06771 25.6364 8.58929 26.1148 8.58929 26.7047C8.58929 27.2946 9.06771 27.7726 9.65761 27.7726V32.0455Z" fill="#C82E25"/>
<path d="M31.0399 27.7725C28.0916 27.7694 25.7023 25.3801 25.6992 22.4318H29.9716C29.9712 23.0221 30.4496 23.5009 31.0399 23.5009C31.6302 23.5009 32.1086 23.0221 32.1082 22.4318H36.3805C36.3774 25.3801 33.9881 27.7694 31.0399 27.7725Z" fill="#C82E25"/>
<path d="M17.1486 32.0434C15.4485 32.0485 13.8165 31.3729 12.6172 30.1677L14.1279 28.6574C15.7384 30.2679 18.5592 30.2679 20.1697 28.6574C21.8361 26.9878 21.8361 24.2848 20.1697 22.6152L21.68 21.1049C23.5134 22.9371 24.0619 25.6938 23.0698 28.0886C22.0778 30.483 19.7405 32.0442 17.1486 32.0434Z" fill="#EF7F00"/>
<path d="M21.3949 25.6365C21.3949 27.9961 19.4821 29.9094 17.1221 29.9094C14.7625 29.9094 12.8496 27.9961 12.8496 25.6365C12.8496 23.2769 14.7625 21.3636 17.1221 21.3636C19.4821 21.3636 21.3949 23.2769 21.3949 25.6365Z" fill="#8B2800"/>
<path d="M27.8251 33.1138C27.8251 34.8835 26.3902 36.3184 24.6206 36.3184C22.8509 36.3184 21.416 34.8835 21.416 33.1138C21.416 31.3438 22.8509 29.9093 24.6206 29.9093C26.3902 29.9093 27.8251 31.3438 27.8251 33.1138Z" fill="#8B2800"/>
<path d="M8.5893 38.4546C8.5893 39.6344 7.63286 40.5908 6.45305 40.5908C5.27285 40.5908 4.31641 39.6344 4.31641 38.4546C4.31641 37.2748 5.27285 36.3184 6.45305 36.3184C7.63286 36.3184 8.5893 37.2748 8.5893 38.4546Z" fill="#8B2800"/>
<path d="M27.8251 16.0228C27.8251 17.7925 26.3902 19.2273 24.6206 19.2273C22.8509 19.2273 21.416 17.7925 21.416 16.0228C21.416 14.2531 22.8509 12.8182 24.6206 12.8182C26.3902 12.8182 27.8251 14.2531 27.8251 16.0228Z" fill="#8B2800"/>
<path d="M38.5351 24.0184C38.5163 23.9453 36.4278 16.0935 28.6441 10.254C23.0612 6.06794 13.8708 5.49526 13.7793 5.49017L14.0253 1.22357C14.4529 1.24861 24.6048 1.88388 31.2059 6.83661C40.2543 13.6224 42.5845 22.6027 42.6784 22.9814L38.5351 24.0184Z" fill="#FEE3AA"/>
</g>
<defs>
<clipPath id="clip0_307_3659">
<rect width="47" height="47" fill="white"/>
</clipPath>
</defs>
</svg>
